<?xml version="1.0" standalone="no"?>
<!DOCTYPE svg PUBLIC "-//W3C//DTD SVG 20010904//EN"
 "http://www.w3.org/TR/2001/REC-SVG-20010904/DTD/svg10.dtd">
<svg version="1.0" xmlns="http://www.w3.org/2000/svg"
 width="113.000000pt" height="64.000000pt" viewBox="0 0 113.000000 64.000000"
 preserveAspectRatio="xMidYMid meet">

<g transform="translate(0.000000,64.000000) scale(0.100000,-0.100000)"
fill="#000000" stroke="none">
<path d="M514 545 l-49 -55 -110 20 c-60 11 -121 23 -134 26 -21 4 -15 -5 33
-61 32 -36 57 -67 55 -69 -2 -1 -61 -18 -131 -37 -69 -19 -125 -35 -124 -37 2
-1 54 -11 116 -22 62 -11 115 -22 118 -25 3 -2 -16 -36 -41 -75 -26 -38 -47
-72 -47 -74 0 -2 50 16 112 40 61 24 113 43 114 41 1 -1 33 -40 71 -88 l68
-85 60 83 c33 45 67 83 76 83 8 0 63 -17 122 -39 59 -21 107 -37 107 -34 0 2
-20 36 -45 74 -25 39 -43 74 -40 78 2 5 26 11 52 14 26 3 79 11 117 18 l69 12
-124 39 c-68 21 -125 41 -128 43 -2 3 19 31 47 63 l51 59 -82 -13 c-45 -7
-107 -17 -138 -22 l-55 -8 -46 52 -46 53 -48 -54z"/>
</g>
</svg>
