<?xml version="1.0" standalone="no"?>
<!DOCTYPE svg PUBLIC "-//W3C//DTD SVG 20010904//EN"
 "http://www.w3.org/TR/2001/REC-SVG-20010904/DTD/svg10.dtd">
<svg version="1.0" xmlns="http://www.w3.org/2000/svg"
 width="113.000000pt" height="64.000000pt" viewBox="0 0 113.000000 64.000000"
 preserveAspectRatio="xMidYMid meet">

<g transform="translate(0.000000,64.000000) scale(0.100000,-0.100000)"
fill="#000000" stroke="none">
<path d="M445 594 c-210 -46 -370 -190 -337 -303 38 -124 218 -237 410 -256
223 -22 502 139 502 290 0 172 -325 324 -575 269z m205 -45 c106 -24 212 -103
230 -171 37 -135 -187 -273 -387 -238 -224 39 -330 193 -213 310 88 88 240
129 370 99z"/>
<path d="M499 520 c-83 -14 -172 -72 -195 -126 -33 -79 58 -169 196 -195 109
-20 229 21 287 98 40 52 36 93 -11 142 -66 67 -173 98 -277 81z m154 -46 c57
-29 77 -54 77 -97 0 -115 -200 -158 -300 -64 -79 75 -2 176 133 177 34 0 71
-7 90 -16z"/>
<path d="M503 451 c-52 -24 -63 -54 -32 -87 13 -13 39 -29 59 -35 31 -10 44
-8 83 9 60 27 73 51 46 86 -17 22 -72 46 -104 46 -5 0 -29 -9 -52 -19z"/>
</g>
</svg>
