<?xml version="1.0" standalone="no"?>
<!DOCTYPE svg PUBLIC "-//W3C//DTD SVG 20010904//EN"
 "http://www.w3.org/TR/2001/REC-SVG-20010904/DTD/svg10.dtd">
<svg version="1.0" xmlns="http://www.w3.org/2000/svg"
 width="113.000000pt" height="64.000000pt" viewBox="0 0 113.000000 64.000000"
 preserveAspectRatio="xMidYMid meet">

<g transform="translate(0.000000,64.000000) scale(0.100000,-0.100000)"
fill="#000000" stroke="none">
<path d="M505 604 c-11 -2 -45 -9 -75 -15 -142 -28 -293 -135 -321 -228 -45
-151 193 -322 451 -324 232 -2 460 139 460 284 0 97 -109 200 -268 252 -74 25
-204 41 -247 31z m190 -39 c57 -15 185 -69 185 -78 0 -2 -26 2 -57 10 -74 17
-205 19 -262 4 -97 -27 -145 -123 -85 -170 22 -17 41 -21 105 -21 69 0 81 -3
108 -26 26 -22 31 -33 31 -70 0 -72 -50 -105 -180 -120 -119 -13 -285 48 -360
133 -67 77 -63 132 19 213 57 57 154 112 227 129 63 15 205 12 269 -4z"/>
</g>
</svg>
